<svg viewBox="0 0 64 64" width="15px" height="15px" xmlns="http://www.w3.org/2000/svg"><defs><style>.cls-1{fill:#000;}.cls-2{fill:#000;}.cls-3{fill:#000;}.cls-4{fill:#000;}</style></defs><title/><g id="Megaphone"><path class="cls-1" d="M22,18V40H6a4,4,0,0,1-4-4V22a4,4,0,0,1,4-4Z"/><polygon class="cls-2" points="46 7 46 51 22 40 22 18 46 7"/><path class="cls-2" d="M14.8,61h-6a2,2,0,0,1-2-1.81L5,40H15c1.35,14.23,1.8,19,1.79,18.81A2,2,0,0,1,14.8,61Z"/><path class="cls-3" d="M50,55a4,4,0,0,1-4-4V7a4,4,0,0,1,8,0V51A4,4,0,0,1,50,55Z"/><path class="cls-1" d="M54,37a8,8,0,0,0,0-16Z"/><polygon class="cls-3" points="22 40 22 50 15.95 50 15 40 22 40"/><path class="cls-4" d="M64,29a10,10,0,0,0-8-9.8V7A6,6,0,0,0,44.16,5.64L21.56,16H6a6,6,0,0,0-6,6V36a6,6,0,0,0,3.11,5.26L4.84,59.38a4,4,0,0,0,4,3.62h6a4,4,0,0,0,4-4.38L18.15,52H22a2,2,0,0,0,2-2V43.12l20.16,9.24A6,6,0,0,0,56,51V38.8A10,10,0,0,0,64,29ZM4,22a2,2,0,0,1,2-2H20V38H6a2,2,0,0,1-2-2ZM8.82,59,7.2,42h6c.05.47,1.51,15.79,1.62,17ZM20,48H17.77l-.57-6H20Zm4-28.72,20-9.16V47.88L24,38.72ZM52,51a2,2,0,0,1-4,0V7a2,2,0,0,1,4,0Zm4-16.34V23.34A6,6,0,0,1,56,34.66Z"/></g></svg>