<svg xmlns="http://www.w3.org/2000/svg" width="20" height="20" viewBox="0 0 32 32"><g fill="none" fill-rule="evenodd"><path fill="#FFDC70" fill-rule="nonzero" d="M15.96,2.66 C17.960852,2.66 19.814207,3.2911648 21.332003,4.3652595 C23.714565,6.0513936 25.27,8.8290454 25.27,11.97 C25.27,13.2031361 25.030201,14.380226 24.594892,15.457393 C23.931089,17.099278 22.812559,18.508812 21.395311,19.529454 C20.562066,20.129683 19.95,21.038472 19.95,22.065365 L19.95,22.61 L11.97,22.61 L11.97,22.065365 C11.97,21.038472 11.3578941,20.129683 10.5246491,19.529454 C8.1778774,17.839157 6.65,15.082998 6.65,11.97 C6.65,6.8282333 10.8182333,2.66 15.96,2.66 Z"/><path fill="#FFEBAE" fill-rule="nonzero" d="M21.332003,4.3652595 C19.814207,3.2911648 17.960852,2.66 15.96,2.66 C10.8182333,2.66 6.65,6.8282333 6.65,11.97 C6.65,14.879641 7.9847348,17.477397 10.0753086,19.184718 C8.7655645,17.580871 7.98,15.532139 7.98,13.3 C7.98,8.1582333 12.1482333,3.99 17.29,3.99 C19.290852,3.99 21.144207,4.6211648 22.662003,5.6952595 C22.83743,5.8194416 23.008468,5.9495688 23.174718,6.0853086 C22.641521,5.4323451 22.021342,4.8531035 21.332003,4.3652595 Z"/><path fill="#CEDEE7" fill-rule="nonzero" d="M9.31,25.27 C9.31,23.800882 10.5009219,22.61 11.97,22.61 L19.95,22.61 C21.419118,22.61 22.61,23.800882 22.61,25.27 L22.61,26.6 C22.61,28.069118 21.419118,29.26 19.95,29.26 L11.97,29.26 C10.5009219,29.26 9.31,28.069118 9.31,26.6 L9.31,25.27 Z"/><path fill="#856300" d="M12.9311112,11.4167599 C13.2367053,11.2130305 13.649524,11.2956102 13.85328,11.601191 L15.96,14.761271 L18.06672,11.601191 C18.270343,11.2956102 18.683308,11.2130305 18.988809,11.4167599 C19.294443,11.620476 19.377036,12.0333612 19.17328,12.338942 L16.625,16.161362 L16.625,22.610133 L15.295,22.610133 L15.295,16.161362 L12.7466801,12.338942 C12.5429507,12.0333612 12.6255304,11.620476 12.9311112,11.4167599 Z"/><path fill="#9BC3D3" fill-rule="nonzero" d="M13.601245,29.26 L19.95,29.26 C21.419118,29.26 22.61,28.069118 22.61,26.6 L22.61,25.27 C22.61,23.800882 21.419118,22.61 19.95,22.61 L17.440689,22.61 L13.601245,29.26 Z"/></g></svg>