<svg xmlns="http://www.w3.org/2000/svg" width="24" height="20" viewBox="0 0 32 32"><g fill="none" fill-rule="evenodd"><path fill="#9BC3D3" fill-rule="nonzero" d="M9.8309743,12.3673641 L10.1571435,9.6615323 C10.3824455,7.9458456 8.8216373,6.65 7.1881313,6.65 C5.4567373,6.65 3.9573618,8.030274 4.2250243,9.6768406 L4.5466981,12.3557 C4.7839967,13.6750999 5.816489,14.63 7.1881313,14.63 C8.5641493,14.63 9.625609,13.7167954 9.8309743,12.3673641 Z"/><path fill="#9E3667" d="M18.8459936,26.647215 C21.1758876,26.78886 23.5430216,27.07215 26.0281266,27.485248 C26.3118156,27.53233 26.5944406,27.393611 26.7289036,27.139315 L26.9297336,26.759334 C27.8354636,24.689322 28.2943136,22.477399 28.2943136,20.240073 L28.2943136,18.235763 C28.2943136,16.729671 27.1578286,15.706103 25.3523536,15.706103 C24.8089156,15.706103 24.1844806,16.043923 23.5658976,16.047913 C22.9511716,16.053632 22.5182566,15.706103 21.7400736,15.706103 C19.9403176,15.706103 18.8459936,16.723686 18.8459936,18.235763 L18.8459936,26.647215 Z"/><path fill="#732645" d="M18.8459936,25.315087 L18.8459936,26.647215 C21.1758876,26.78886 23.5430216,27.07215 26.0281266,27.485248 C26.3118156,27.53233 26.5944406,27.393611 26.7289036,27.139315 L26.9297336,26.759334 C27.8354636,24.689322 28.2943136,22.477399 28.2943136,20.240073 L28.2943136,18.235763 C28.2943136,16.729671 27.1578286,15.706103 25.3523536,15.706103 C25.0878166,15.706103 24.8042606,15.786036 24.5113946,15.868762 C24.4282696,15.89217 24.3443466,15.915844 24.2598916,15.937922 L18.8459936,25.315087 Z"/><path fill="#23779A" d="M4.270098,27.140113 C4.4084047,27.382838 4.6837546,27.513045 4.9594636,27.467692 C7.4446085,27.058983 9.7954633,26.780348 12.10832,26.642427 L12.10832,18.249994 C12.10832,16.730336 11.0148871,15.707034 9.21291,15.707034 C8.3621755,15.707034 8.0220413,16.057489 7.3890411,16.051504 C6.7824015,16.045652 6.3015932,15.707034 5.60196,15.707034 C3.7953412,15.707034 2.66,16.736587 2.66,18.249994 L2.66,20.080074 C2.66,22.460774 3.1714515,24.809022 4.1536831,26.935825 L4.270098,27.140113 Z"/><path fill="#34466B" d="M3.7825067,26.065207 C3.8975916,26.359137 4.0213082,26.649476 4.1535501,26.935825 L4.269965,27.140246 C4.4082717,27.382971 4.6836216,27.513178 4.9593306,27.467825 C7.4444755,27.058983 9.795317,26.780481 12.108187,26.64256 L12.108187,18.250127 C12.108187,16.886345 11.2275408,15.922228 9.7444445,15.738821 L3.7825067,26.065207 Z"/><path fill="#EC0000" d="M20.1775896,26.743108 C20.2225436,26.549992 20.7949756,24.03443 20.8189156,21.28 C20.8189156,17.955 20.5096906,14.444598 17.2009166,14.444598 C16.8407526,14.444598 16.5529406,14.5296515 16.2763006,14.6113933 C16.0236006,14.686126 15.7802106,14.757946 15.4995806,14.759808 C15.1995326,14.76167 14.9393846,14.688121 14.6687296,14.6116992 C14.3790556,14.529851 14.0772786,14.444598 13.7016866,14.444598 C10.3530392,14.444598 10.1789156,17.955 10.1789156,21.28 C10.2029354,24.010091 10.7230718,26.503043 10.7731729,26.737123 C12.3424133,26.608246 13.8860246,26.542145 15.4334796,26.542145 C17.0075346,26.542145 18.5803926,26.610374 20.1775896,26.743108 Z"/><path fill="#C00" d="M10.3396062,23.922444 C10.5043134,25.453806 10.7402687,26.583375 10.7731995,26.737123 C12.3424399,26.608246 13.8861576,26.542145 15.4336126,26.542145 C17.0076676,26.542145 18.5805256,26.610374 20.1775896,26.743108 C20.2225436,26.549992 20.7949756,24.03443 20.8189156,21.28 C20.8189156,17.955 20.5096906,14.444598 17.2009166,14.444598 C16.8407526,14.444598 16.5529406,14.5296515 16.2763006,14.6113933 C16.0645646,14.674023 15.8593456,14.734671 15.6332456,14.75369 L10.3396062,23.922444 Z"/><path fill="#CF9BB3" d="M26.7821036,9.6615323 L26.4559876,12.3673641 C26.2506356,13.7167954 25.1891626,14.63 23.8131446,14.63 C22.4415156,14.63 21.4090366,13.6750999 21.1716316,12.3557 L20.8500376,9.6768406 C20.5823086,8.030274 22.0817506,6.65 23.8131446,6.65 C25.4466506,6.65 27.0074056,7.9458456 26.7821036,9.6615323 Z"/><path fill="#F67F7F" fill-rule="nonzero" d="M18.1434876,11.0373641 L18.4696036,8.3315323 C18.6949056,6.6158456 17.1341506,5.32 15.5006446,5.32 C13.7692506,5.32 12.2698618,6.700274 12.5375243,8.3468406 L12.8591316,11.0257 C13.0965366,12.3450999 14.1290156,13.3 15.5006446,13.3 C16.8766626,13.3 17.9381356,12.3867954 18.1434876,11.0373641 Z"/><path fill="#FAB2B2" fill-rule="nonzero" d="M14.4135026,13.0777038 C14.3110926,12.8535988 14.2351496,12.6114989 14.1891316,12.3557 L13.8675376,9.6768406 C13.5998086,8.030274 15.0992506,6.65 16.8306446,6.65 C17.3339166,6.65 17.8302726,6.7729851 18.2695716,6.9933528 C17.8039386,5.9851729 16.6709116,5.32 15.5006446,5.32 C13.7692506,5.32 12.2698618,6.700274 12.5375243,8.3468406 L12.8591316,11.0257 C13.0283076,11.9661829 13.6015376,12.72145 14.4135026,13.0777038 Z"/><path fill="#CEDEE7" fill-rule="nonzero" d="M6.1010691,14.4077038 C5.9986059,14.1835988 5.9227028,13.9414989 5.8766981,13.6857 L5.5550243,11.0068406 C5.2873618,9.360274 6.7867373,7.98 8.5181313,7.98 C9.0213767,7.98 9.5177194,8.1029851 9.9570716,8.3233528 C9.4914918,7.3151729 8.3584648,6.65 7.1881313,6.65 C5.4567373,6.65 3.9573618,8.030274 4.2250243,9.6768406 L4.5466981,12.3557 C4.7158475,13.2961829 5.2890243,14.05145 6.1010691,14.4077038 Z"/><path fill="#E2C3D2" d="M22.5016316,13.6857 C22.5476496,13.9414989 22.6235926,14.1835988 22.7260026,14.4077038 C21.9140376,14.05145 21.3408076,13.2961829 21.1716316,12.3557 L20.8500376,9.6768406 C20.5823086,8.030274 22.0817506,6.65 23.8131446,6.65 C24.9834116,6.65 26.1164386,7.3151729 26.5820716,8.3233528 C26.1427726,8.1029851 25.6464166,7.98 25.1431446,7.98 C23.4117506,7.98 21.9123086,9.360274 22.1800376,11.0068406 L22.5016316,13.6857 Z"/></g></svg>