<svg id="Layer_1" width="20px" height="20px" style="enable-background:new 0 0 52 52;" version="1.1" viewBox="0 0 52 52" xml:space="preserve" xmlns="http://www.w3.org/2000/svg" xmlns:xlink="http://www.w3.org/1999/xlink"><style type="text/css">
	.st0{fill:#231F20;}
</style><g><g><path class="st0" d="M5.3621688,3.5247452C12.491559,3.4095297,19.6213341,3.3242145,26.7515335,3.279669    c3.5650749-0.0222726,7.1302032-0.0353684,10.6953468-0.0393379c2.6475029-0.0029478,9.3103523-1.2589024,10.8394661,1.6008534    c0.4967728,0.9290724,0.1150093,4.7394543,0.1383438,5.8058615c0.0352898,1.612812,0.0673943,3.2256927,0.0972176,4.8386145    c0.0656128,3.5484333,0.1183434,7.0970917,0.1581154,10.6459084c0.0397758,3.5488129,0.0658264,7.0977783,0.0793724,10.6467857    c0.0089226,2.3367271,1.0097466,10.4630203-1.3161888,11.942421c-1.9313736,1.2284431-7.6390419,0.2459869-9.893116,0.2451973    c-3.7910805-0.0013275-7.5821629-0.002655-11.3732452-0.0039825c-3.159235-0.0011024-6.31847-0.0022087-9.477705-0.003315    c-4.7734442-0.0016708-11.8000002,1.5015373-13.449091-4.6151695c-0.7340305-2.7226219,0.1374273-6.9127274,0.1938326-9.7499619    c0.0710719-3.5749855,0.1421437-7.149971,0.2132156-10.7249584s0.1421435-7.149971,0.2132154-10.7249575    c0.0503545-2.5328865-1.1092877-9.28263,2.3232789-9.2643499c1.4480586,0.0077119,1.449791-2.2422791,0-2.25    C4.6045938,1.620816,2.9464405,1.2229984,1.9745413,2.6164885c-0.709903,1.0178452-0.2155639,3.552206-0.2379283,4.6771622    c-0.0516887,2.5999899-0.1033772,5.1999798-0.1550658,7.7999697C1.47817,20.2936001,1.3747928,25.4935799,1.2714156,30.6935596    c-0.0957642,4.8170376-1.0217899,10.4280109-0.2340264,15.1798687c1.1302568,6.8178101,10.7276573,5.333519,15.6617517,5.335247    c5.0547771,0.00177,10.1095524,0.0035362,15.1643276,0.0053062c4.6892967,0.0016403,9.7358398,0.5422401,14.3880196-0.0810318    c2.2517967-0.3016815,3.2935486-0.4211159,4.1446075-2.4969749c1.5092697-3.6813316,0.6268845-8.9726906,0.6096077-12.825531    c-0.0231514-5.1621819-0.0738411-10.3242397-0.1520653-15.4858818C50.7773285,15.289712,51.246315,9.8241005,50.5363464,4.8411846    c-0.876358-6.1507063-9.5106888-3.8569779-14.061779-3.849771C26.1031322,1.0078377,15.732233,1.1071584,5.3621688,1.2747451    C3.915787,1.2981195,3.9113703,3.5481911,5.3621688,3.5247452L5.3621688,3.5247452z"/></g><g><path class="st0" d="M2.9448407,15.2672272c15.5833082,0.0379553,31.1666164,0.0759096,46.7499275,0.1138639    c1.4479103,0.0035267,1.4500046-2.2464676,0-2.25c-15.5833092-0.0379543-31.1666183-0.0759087-46.7499275-0.1138639    C1.4969296,13.0137014,1.4948361,15.2636957,2.9448407,15.2672272L2.9448407,15.2672272z"/></g><g><path class="st0" d="M16.4447823,9.874629c1.4477673,0,1.4501648-2.25,0-2.25    C14.997014,7.624629,14.9946165,9.874629,16.4447823,9.874629L16.4447823,9.874629z"/></g><g><path class="st0" d="M13.0281153,7.707962c-0.0277777,0-0.0555553,0-0.083333,0c-1.4477682-0.0000005-1.4501657,2.249999,0,2.25    c0.0277777,0,0.0555553,0,0.083333,0C14.4758825,9.957963,14.478281,7.707963,13.0281153,7.707962L13.0281153,7.707962z"/></g><g><path class="st0" d="M8.6947823,7.7912955c-0.0277777,0-0.0555563,0-0.083334,0    c-1.4477673,0.000001-1.4501653,2.2500005,0,2.2500005c0.0277777,0,0.0555563,0,0.083334-0.000001    C10.1425495,10.0412951,10.144948,7.7912946,8.6947823,7.7912955L8.6947823,7.7912955z"/></g><g><path class="st0" d="M10.1114483,26.6246281c4.083334,0,8.1666679,0,12.25,0c1.4477673,0,1.4501667-2.25,0-2.25    c-4.0833321,0-8.166666,0-12.25,0C8.663681,24.3746281,8.6612825,26.6246281,10.1114483,26.6246281L10.1114483,26.6246281z"/></g><g><path class="st0" d="M10.3540611,34.2800331c10.4700508,0.4779091,20.9430866,0.6592903,31.4234047,0.54422    c1.4469109-0.0158882,1.4506798-2.2659264,0-2.25c-10.4803181,0.1150703-20.9533539-0.0663109-31.4234047-0.54422    C8.9064627,31.9639568,8.9097624,34.2141075,10.3540611,34.2800331L10.3540611,34.2800331z"/></g><g><path class="st0" d="M10.1112251,41.7675819c10.6389484,0.039814,21.2778969,0.0796242,31.9168434,0.1194344    c1.4479828,0.0054207,1.449913-2.2445717,0-2.25c-10.6389465-0.0398102-21.277895-0.0796204-31.9168434-0.1194344    C8.6632452,39.5121651,8.661314,41.7621574,10.1112251,41.7675819L10.1112251,41.7675819z"/></g></g></svg>