<svg xmlns="http://www.w3.org/2000/svg" width="20" height="20" viewBox="0 0 32 32"><g fill="none" fill-rule="evenodd"><path fill="#900" fill-rule="nonzero" d="M22.61,4.655 C22.61,4.2877338 22.312213,3.99 21.945,3.99 L3.325,3.99 C2.9577338,3.99 2.66,4.2877338 2.66,4.655 L2.66,17.955 C2.66,18.322213 2.9577338,18.62 3.325,18.62 L13.3,18.62 L13.3,10.64 L22.61,10.64 L22.61,4.655 Z"/><path fill="#EC0000" fill-rule="nonzero" d="M8.645,9.31 C8.2777338,9.31 7.98,9.6077338 7.98,9.975 L7.98,23.275 C7.98,23.642213 8.2777338,23.94 8.645,23.94 L15.35618,23.94 C15.797208,23.94 16.115743,23.517459 16.04778,23.081618 C15.990058,22.711213 15.96,22.331631 15.96,21.945 C15.96,17.904992 19.234992,14.63 23.275,14.63 C24.537569,14.63 25.725525,14.949865 26.761994,15.512987 C27.256222,15.781514 27.93,15.452738 27.93,14.890414 L27.93,9.975 C27.93,9.6077338 27.632213,9.31 27.265,9.31 L8.645,9.31 Z"/><path fill="#C00" fill-rule="nonzero" d="M19.031502,9.31 L10.5848848,23.94 L15.35618,23.94 C15.797208,23.94 16.115743,23.517459 16.04778,23.081618 C15.990058,22.711213 15.96,22.331631 15.96,21.945 C15.96,17.904992 19.234992,14.63 23.275,14.63 C24.537569,14.63 25.725525,14.949865 26.761994,15.512987 C27.256222,15.781514 27.93,15.452738 27.93,14.890414 L27.93,9.975 C27.93,9.6077338 27.632213,9.31 27.265,9.31 L19.031502,9.31 Z"/><path fill="#008035" d="M23.275,27.93 C26.580449,27.93 29.26,25.250449 29.26,21.945 C29.26,18.639551 26.580449,15.96 23.275,15.96 C19.969551,15.96 17.29,18.639551 17.29,21.945 C17.29,25.250449 19.969551,27.93 23.275,27.93 Z M23.275,18.62 C23.642213,18.62 23.94,18.917787 23.94,19.285 L23.94,21.28 L25.935,21.28 C26.302213,21.28 26.6,21.577787 26.6,21.945 C26.6,22.312213 26.302213,22.61 25.935,22.61 L23.94,22.61 L23.94,24.605 C23.94,24.972213 23.642213,25.27 23.275,25.27 C22.907787,25.27 22.61,24.972213 22.61,24.605 L22.61,22.61 L20.615,22.61 C20.247787,22.61 19.95,22.312213 19.95,21.945 C19.95,21.577787 20.247787,21.28 20.615,21.28 L22.61,21.28 L22.61,19.285 C22.61,18.917787 22.907787,18.62 23.275,18.62 Z"/></g></svg>