<svg id="Layer_1" style="enable-background:new 0 0 32 32;" width="20px" height="20px" version="1.1" viewBox="0 0 32 32" xml:space="preserve" xmlns="http://www.w3.org/2000/svg" xmlns:xlink="http://www.w3.org/1999/xlink"><style type="text/css">
	.st0{fill:#fff;stroke:#fff;stroke-width:2;stroke-miterlimit:10;}
</style><path class="st0" d="M29.8,18.3l-3.5,0.5c-0.2,0.9-0.6,1.7-1,2.4l2.1,2.8c0.4,0.5,0.3,1.3-0.1,1.8l-1.4,1.4  c-0.5,0.5-1.2,0.5-1.8,0.1l-2.8-2.1c-0.8,0.4-1.6,0.8-2.4,1l-0.5,3.5C18.3,30.5,17.7,31,17,31h-2c-0.7,0-1.2-0.5-1.3-1.2l-0.5-3.5  c-0.9-0.2-1.7-0.6-2.4-1l-2.8,2.1c-0.5,0.4-1.3,0.3-1.8-0.1l-1.4-1.4c-0.5-0.5-0.5-1.2-0.1-1.8l2.1-2.8c-0.4-0.8-0.8-1.6-1-2.4  l-3.5-0.5C1.5,18.3,1,17.7,1,17v-2c0-0.7,0.5-1.2,1.2-1.3l3.5-0.5c0.2-0.9,0.6-1.7,1-2.4L4.5,7.9C4.1,7.3,4.2,6.6,4.7,6.1l1.4-1.4  c0.5-0.5,1.2-0.5,1.8-0.1l2.8,2.1c0.8-0.4,1.6-0.8,2.4-1l0.5-3.5C13.7,1.5,14.3,1,15,1h2c0.7,0,1.2,0.5,1.3,1.2l0.5,3.5  c0.9,0.2,1.7,0.6,2.4,1l2.8-2.1c0.5-0.4,1.3-0.3,1.8,0.1l1.4,1.4c0.5,0.5,0.5,1.2,0.1,1.8l-2.1,2.8c0.4,0.8,0.8,1.6,1,2.4l3.5,0.5  c0.7,0.1,1.2,0.7,1.2,1.3v2C31,17.7,30.5,18.2,29.8,18.3z M16,10.7c-2.9,0-5.3,2.4-5.3,5.3s2.4,5.3,5.3,5.3s5.3-2.4,5.3-5.3  S18.9,10.7,16,10.7z"/></svg>